<mxfile host="Electron" agent="Mozilla/5.0 (Windows NT 10.0; Win64; x64) AppleWebKit/537.36 (KHTML, like Gecko) draw.io/26.0.16 Chrome/132.0.6834.196 Electron/34.2.0 Safari/537.36" version="26.0.16">
  <diagram name="Page-1" id="uBo-zZCr2jT2goFaHdG5">
    <mxGraphModel dx="1600" dy="1874" grid="1" gridSize="10" guides="1" tooltips="1" connect="1" arrows="1" fold="1" page="1" pageScale="1" pageWidth="850" pageHeight="1100" math="0" shadow="0">
      <root>
        <mxCell id="0" />
        <mxCell id="1" parent="0" />
        <mxCell id="UKDj6XNI0c0fZ1imPNGh-1" value="&lt;div style=&quot;&quot;&gt;&lt;b style=&quot;background-color: transparent; color: light-dark(rgb(0, 0, 0), rgb(255, 255, 255));&quot;&gt;Sales Data Mart &lt;/b&gt;&lt;font style=&quot;background-color: transparent; color: light-dark(rgb(0, 0, 0), rgb(255, 255, 255)); font-size: 30px;&quot;&gt;(Star Schema)&lt;/font&gt;&lt;/div&gt;" style="text;html=1;strokeColor=none;fillColor=none;align=center;verticalAlign=middle;whiteSpace=wrap;rounded=1;fontSize=38;fontFamily=Helvetica;" vertex="1" parent="1">
          <mxGeometry x="430" y="-1010" width="1090" height="54" as="geometry" />
        </mxCell>
        <mxCell id="UKDj6XNI0c0fZ1imPNGh-2" value="&lt;font style=&quot;font-size: 18px;&quot;&gt;gold.dim_customers&lt;/font&gt;" style="shape=table;startSize=40;container=1;collapsible=1;childLayout=tableLayout;fixedRows=1;rowLines=0;fontStyle=1;align=center;resizeLast=1;html=1;rounded=1;fillColor=#fff2cc;strokeColor=#d6b656;" vertex="1" parent="1">
          <mxGeometry x="430" y="-890" width="250" height="440" as="geometry" />
        </mxCell>
        <mxCell id="UKDj6XNI0c0fZ1imPNGh-3" value="" style="shape=tableRow;horizontal=0;startSize=0;swimlaneHead=0;swimlaneBody=0;fillColor=none;collapsible=0;dropTarget=0;points=[[0,0.5],[1,0.5]];portConstraint=eastwest;top=0;left=0;right=0;bottom=1;rounded=1;fontStyle=1;fontSize=16;" vertex="1" parent="UKDj6XNI0c0fZ1imPNGh-2">
          <mxGeometry y="40" width="250" height="39" as="geometry" />
        </mxCell>
        <mxCell id="UKDj6XNI0c0fZ1imPNGh-4" value="PK" style="shape=partialRectangle;connectable=0;fillColor=none;top=0;left=0;bottom=0;right=0;fontStyle=1;overflow=hidden;whiteSpace=wrap;html=1;rounded=1;fontSize=16;" vertex="1" parent="UKDj6XNI0c0fZ1imPNGh-3">
          <mxGeometry width="30" height="39" as="geometry">
            <mxRectangle width="30" height="39" as="alternateBounds" />
          </mxGeometry>
        </mxCell>
        <mxCell id="UKDj6XNI0c0fZ1imPNGh-5" value="&lt;span style=&quot;background-color: rgb(224, 224, 224);&quot;&gt;customer_key&lt;/span&gt;" style="shape=partialRectangle;connectable=0;fillColor=none;top=0;left=0;bottom=0;right=0;align=left;spacingLeft=6;fontStyle=5;overflow=hidden;whiteSpace=wrap;html=1;rounded=1;fontSize=16;" vertex="1" parent="UKDj6XNI0c0fZ1imPNGh-3">
          <mxGeometry x="30" width="220" height="39" as="geometry">
            <mxRectangle width="220" height="39" as="alternateBounds" />
          </mxGeometry>
        </mxCell>
        <mxCell id="UKDj6XNI0c0fZ1imPNGh-6" value="" style="shape=tableRow;horizontal=0;startSize=0;swimlaneHead=0;swimlaneBody=0;fillColor=none;collapsible=0;dropTarget=0;points=[[0,0.5],[1,0.5]];portConstraint=eastwest;top=0;left=0;right=0;bottom=0;rounded=1;fontStyle=1;fontSize=16;" vertex="1" parent="UKDj6XNI0c0fZ1imPNGh-2">
          <mxGeometry y="79" width="250" height="39" as="geometry" />
        </mxCell>
        <mxCell id="UKDj6XNI0c0fZ1imPNGh-7" value="" style="shape=partialRectangle;connectable=0;fillColor=none;top=0;left=0;bottom=0;right=0;editable=1;overflow=hidden;whiteSpace=wrap;html=1;rounded=1;fontStyle=1;fontSize=16;" vertex="1" parent="UKDj6XNI0c0fZ1imPNGh-6">
          <mxGeometry width="30" height="39" as="geometry">
            <mxRectangle width="30" height="39" as="alternateBounds" />
          </mxGeometry>
        </mxCell>
        <mxCell id="UKDj6XNI0c0fZ1imPNGh-8" value="customer_id" style="shape=partialRectangle;connectable=0;fillColor=none;top=0;left=0;bottom=0;right=0;align=left;spacingLeft=6;overflow=hidden;whiteSpace=wrap;html=1;rounded=1;fontStyle=1;fontSize=16;" vertex="1" parent="UKDj6XNI0c0fZ1imPNGh-6">
          <mxGeometry x="30" width="220" height="39" as="geometry">
            <mxRectangle width="220" height="39" as="alternateBounds" />
          </mxGeometry>
        </mxCell>
        <mxCell id="UKDj6XNI0c0fZ1imPNGh-9" value="" style="shape=tableRow;horizontal=0;startSize=0;swimlaneHead=0;swimlaneBody=0;fillColor=none;collapsible=0;dropTarget=0;points=[[0,0.5],[1,0.5]];portConstraint=eastwest;top=0;left=0;right=0;bottom=0;rounded=1;fontStyle=1;fontSize=16;" vertex="1" parent="UKDj6XNI0c0fZ1imPNGh-2">
          <mxGeometry y="118" width="250" height="39" as="geometry" />
        </mxCell>
        <mxCell id="UKDj6XNI0c0fZ1imPNGh-10" value="" style="shape=partialRectangle;connectable=0;fillColor=none;top=0;left=0;bottom=0;right=0;editable=1;overflow=hidden;whiteSpace=wrap;html=1;rounded=1;fontStyle=1;fontSize=16;" vertex="1" parent="UKDj6XNI0c0fZ1imPNGh-9">
          <mxGeometry width="30" height="39" as="geometry">
            <mxRectangle width="30" height="39" as="alternateBounds" />
          </mxGeometry>
        </mxCell>
        <mxCell id="UKDj6XNI0c0fZ1imPNGh-11" value="customer_number" style="shape=partialRectangle;connectable=0;fillColor=none;top=0;left=0;bottom=0;right=0;align=left;spacingLeft=6;overflow=hidden;whiteSpace=wrap;html=1;rounded=1;fontStyle=1;fontSize=16;" vertex="1" parent="UKDj6XNI0c0fZ1imPNGh-9">
          <mxGeometry x="30" width="220" height="39" as="geometry">
            <mxRectangle width="220" height="39" as="alternateBounds" />
          </mxGeometry>
        </mxCell>
        <mxCell id="UKDj6XNI0c0fZ1imPNGh-12" value="" style="shape=tableRow;horizontal=0;startSize=0;swimlaneHead=0;swimlaneBody=0;fillColor=none;collapsible=0;dropTarget=0;points=[[0,0.5],[1,0.5]];portConstraint=eastwest;top=0;left=0;right=0;bottom=0;rounded=1;fontStyle=1;fontSize=16;" vertex="1" parent="UKDj6XNI0c0fZ1imPNGh-2">
          <mxGeometry y="157" width="250" height="39" as="geometry" />
        </mxCell>
        <mxCell id="UKDj6XNI0c0fZ1imPNGh-13" value="" style="shape=partialRectangle;connectable=0;fillColor=none;top=0;left=0;bottom=0;right=0;editable=1;overflow=hidden;whiteSpace=wrap;html=1;rounded=1;fontStyle=1;fontSize=16;" vertex="1" parent="UKDj6XNI0c0fZ1imPNGh-12">
          <mxGeometry width="30" height="39" as="geometry">
            <mxRectangle width="30" height="39" as="alternateBounds" />
          </mxGeometry>
        </mxCell>
        <mxCell id="UKDj6XNI0c0fZ1imPNGh-14" value="first_name" style="shape=partialRectangle;connectable=0;fillColor=none;top=0;left=0;bottom=0;right=0;align=left;spacingLeft=6;overflow=hidden;whiteSpace=wrap;html=1;rounded=1;fontStyle=1;fontSize=16;" vertex="1" parent="UKDj6XNI0c0fZ1imPNGh-12">
          <mxGeometry x="30" width="220" height="39" as="geometry">
            <mxRectangle width="220" height="39" as="alternateBounds" />
          </mxGeometry>
        </mxCell>
        <mxCell id="UKDj6XNI0c0fZ1imPNGh-15" value="" style="shape=tableRow;horizontal=0;startSize=0;swimlaneHead=0;swimlaneBody=0;fillColor=none;collapsible=0;dropTarget=0;points=[[0,0.5],[1,0.5]];portConstraint=eastwest;top=0;left=0;right=0;bottom=0;rounded=1;fontStyle=1;fontSize=16;" vertex="1" parent="UKDj6XNI0c0fZ1imPNGh-2">
          <mxGeometry y="196" width="250" height="39" as="geometry" />
        </mxCell>
        <mxCell id="UKDj6XNI0c0fZ1imPNGh-16" value="" style="shape=partialRectangle;connectable=0;fillColor=none;top=0;left=0;bottom=0;right=0;editable=1;overflow=hidden;whiteSpace=wrap;html=1;rounded=1;fontStyle=1;fontSize=16;" vertex="1" parent="UKDj6XNI0c0fZ1imPNGh-15">
          <mxGeometry width="30" height="39" as="geometry">
            <mxRectangle width="30" height="39" as="alternateBounds" />
          </mxGeometry>
        </mxCell>
        <mxCell id="UKDj6XNI0c0fZ1imPNGh-17" value="last_name" style="shape=partialRectangle;connectable=0;fillColor=none;top=0;left=0;bottom=0;right=0;align=left;spacingLeft=6;overflow=hidden;whiteSpace=wrap;html=1;rounded=1;fontStyle=1;fontSize=16;" vertex="1" parent="UKDj6XNI0c0fZ1imPNGh-15">
          <mxGeometry x="30" width="220" height="39" as="geometry">
            <mxRectangle width="220" height="39" as="alternateBounds" />
          </mxGeometry>
        </mxCell>
        <mxCell id="UKDj6XNI0c0fZ1imPNGh-18" value="" style="shape=tableRow;horizontal=0;startSize=0;swimlaneHead=0;swimlaneBody=0;fillColor=none;collapsible=0;dropTarget=0;points=[[0,0.5],[1,0.5]];portConstraint=eastwest;top=0;left=0;right=0;bottom=0;rounded=1;fontStyle=1;fontSize=16;" vertex="1" parent="UKDj6XNI0c0fZ1imPNGh-2">
          <mxGeometry y="235" width="250" height="39" as="geometry" />
        </mxCell>
        <mxCell id="UKDj6XNI0c0fZ1imPNGh-19" value="" style="shape=partialRectangle;connectable=0;fillColor=none;top=0;left=0;bottom=0;right=0;editable=1;overflow=hidden;whiteSpace=wrap;html=1;rounded=1;fontStyle=1;fontSize=16;" vertex="1" parent="UKDj6XNI0c0fZ1imPNGh-18">
          <mxGeometry width="30" height="39" as="geometry">
            <mxRectangle width="30" height="39" as="alternateBounds" />
          </mxGeometry>
        </mxCell>
        <mxCell id="UKDj6XNI0c0fZ1imPNGh-20" value="country" style="shape=partialRectangle;connectable=0;fillColor=none;top=0;left=0;bottom=0;right=0;align=left;spacingLeft=6;overflow=hidden;whiteSpace=wrap;html=1;rounded=1;fontStyle=1;fontSize=16;" vertex="1" parent="UKDj6XNI0c0fZ1imPNGh-18">
          <mxGeometry x="30" width="220" height="39" as="geometry">
            <mxRectangle width="220" height="39" as="alternateBounds" />
          </mxGeometry>
        </mxCell>
        <mxCell id="UKDj6XNI0c0fZ1imPNGh-21" value="" style="shape=tableRow;horizontal=0;startSize=0;swimlaneHead=0;swimlaneBody=0;fillColor=none;collapsible=0;dropTarget=0;points=[[0,0.5],[1,0.5]];portConstraint=eastwest;top=0;left=0;right=0;bottom=0;rounded=1;fontStyle=1;fontSize=16;" vertex="1" parent="UKDj6XNI0c0fZ1imPNGh-2">
          <mxGeometry y="274" width="250" height="39" as="geometry" />
        </mxCell>
        <mxCell id="UKDj6XNI0c0fZ1imPNGh-22" value="" style="shape=partialRectangle;connectable=0;fillColor=none;top=0;left=0;bottom=0;right=0;editable=1;overflow=hidden;whiteSpace=wrap;html=1;rounded=1;fontStyle=1;fontSize=16;" vertex="1" parent="UKDj6XNI0c0fZ1imPNGh-21">
          <mxGeometry width="30" height="39" as="geometry">
            <mxRectangle width="30" height="39" as="alternateBounds" />
          </mxGeometry>
        </mxCell>
        <mxCell id="UKDj6XNI0c0fZ1imPNGh-23" value="marital_status" style="shape=partialRectangle;connectable=0;fillColor=none;top=0;left=0;bottom=0;right=0;align=left;spacingLeft=6;overflow=hidden;whiteSpace=wrap;html=1;rounded=1;fontStyle=1;fontSize=16;" vertex="1" parent="UKDj6XNI0c0fZ1imPNGh-21">
          <mxGeometry x="30" width="220" height="39" as="geometry">
            <mxRectangle width="220" height="39" as="alternateBounds" />
          </mxGeometry>
        </mxCell>
        <mxCell id="UKDj6XNI0c0fZ1imPNGh-24" value="" style="shape=tableRow;horizontal=0;startSize=0;swimlaneHead=0;swimlaneBody=0;fillColor=none;collapsible=0;dropTarget=0;points=[[0,0.5],[1,0.5]];portConstraint=eastwest;top=0;left=0;right=0;bottom=0;rounded=1;fontStyle=1;fontSize=16;" vertex="1" parent="UKDj6XNI0c0fZ1imPNGh-2">
          <mxGeometry y="313" width="250" height="39" as="geometry" />
        </mxCell>
        <mxCell id="UKDj6XNI0c0fZ1imPNGh-25" value="" style="shape=partialRectangle;connectable=0;fillColor=none;top=0;left=0;bottom=0;right=0;editable=1;overflow=hidden;whiteSpace=wrap;html=1;rounded=1;fontStyle=1;fontSize=16;" vertex="1" parent="UKDj6XNI0c0fZ1imPNGh-24">
          <mxGeometry width="30" height="39" as="geometry">
            <mxRectangle width="30" height="39" as="alternateBounds" />
          </mxGeometry>
        </mxCell>
        <mxCell id="UKDj6XNI0c0fZ1imPNGh-26" value="gender" style="shape=partialRectangle;connectable=0;fillColor=none;top=0;left=0;bottom=0;right=0;align=left;spacingLeft=6;overflow=hidden;whiteSpace=wrap;html=1;rounded=1;fontStyle=1;fontSize=16;" vertex="1" parent="UKDj6XNI0c0fZ1imPNGh-24">
          <mxGeometry x="30" width="220" height="39" as="geometry">
            <mxRectangle width="220" height="39" as="alternateBounds" />
          </mxGeometry>
        </mxCell>
        <mxCell id="UKDj6XNI0c0fZ1imPNGh-27" value="" style="shape=tableRow;horizontal=0;startSize=0;swimlaneHead=0;swimlaneBody=0;fillColor=none;collapsible=0;dropTarget=0;points=[[0,0.5],[1,0.5]];portConstraint=eastwest;top=0;left=0;right=0;bottom=0;rounded=1;fontStyle=1;fontSize=16;" vertex="1" parent="UKDj6XNI0c0fZ1imPNGh-2">
          <mxGeometry y="352" width="250" height="39" as="geometry" />
        </mxCell>
        <mxCell id="UKDj6XNI0c0fZ1imPNGh-28" value="" style="shape=partialRectangle;connectable=0;fillColor=none;top=0;left=0;bottom=0;right=0;editable=1;overflow=hidden;whiteSpace=wrap;html=1;rounded=1;fontStyle=1;fontSize=16;" vertex="1" parent="UKDj6XNI0c0fZ1imPNGh-27">
          <mxGeometry width="30" height="39" as="geometry">
            <mxRectangle width="30" height="39" as="alternateBounds" />
          </mxGeometry>
        </mxCell>
        <mxCell id="UKDj6XNI0c0fZ1imPNGh-29" value="birthdate" style="shape=partialRectangle;connectable=0;fillColor=none;top=0;left=0;bottom=0;right=0;align=left;spacingLeft=6;overflow=hidden;whiteSpace=wrap;html=1;rounded=1;fontStyle=1;fontSize=16;" vertex="1" parent="UKDj6XNI0c0fZ1imPNGh-27">
          <mxGeometry x="30" width="220" height="39" as="geometry">
            <mxRectangle width="220" height="39" as="alternateBounds" />
          </mxGeometry>
        </mxCell>
        <mxCell id="UKDj6XNI0c0fZ1imPNGh-30" value="" style="shape=tableRow;horizontal=0;startSize=0;swimlaneHead=0;swimlaneBody=0;fillColor=none;collapsible=0;dropTarget=0;points=[[0,0.5],[1,0.5]];portConstraint=eastwest;top=0;left=0;right=0;bottom=0;rounded=1;fontStyle=1;fontSize=16;" vertex="1" parent="UKDj6XNI0c0fZ1imPNGh-2">
          <mxGeometry y="391" width="250" height="39" as="geometry" />
        </mxCell>
        <mxCell id="UKDj6XNI0c0fZ1imPNGh-31" value="" style="shape=partialRectangle;connectable=0;fillColor=none;top=0;left=0;bottom=0;right=0;editable=1;overflow=hidden;whiteSpace=wrap;html=1;rounded=1;fontStyle=1;fontSize=16;" vertex="1" parent="UKDj6XNI0c0fZ1imPNGh-30">
          <mxGeometry width="30" height="39" as="geometry">
            <mxRectangle width="30" height="39" as="alternateBounds" />
          </mxGeometry>
        </mxCell>
        <mxCell id="UKDj6XNI0c0fZ1imPNGh-32" value="country" style="shape=partialRectangle;connectable=0;fillColor=none;top=0;left=0;bottom=0;right=0;align=left;spacingLeft=6;overflow=hidden;whiteSpace=wrap;html=1;rounded=1;fontStyle=1;fontSize=16;" vertex="1" parent="UKDj6XNI0c0fZ1imPNGh-30">
          <mxGeometry x="30" width="220" height="39" as="geometry">
            <mxRectangle width="220" height="39" as="alternateBounds" />
          </mxGeometry>
        </mxCell>
        <mxCell id="UKDj6XNI0c0fZ1imPNGh-33" value="&lt;font style=&quot;font-size: 18px;&quot;&gt;gold.dim_products&lt;/font&gt;" style="shape=table;startSize=40;container=1;collapsible=1;childLayout=tableLayout;fixedRows=1;rowLines=0;fontStyle=1;align=center;resizeLast=1;html=1;rounded=1;fillColor=#fff2cc;strokeColor=#d6b656;" vertex="1" parent="1">
          <mxGeometry x="1280" y="-880" width="250" height="479" as="geometry" />
        </mxCell>
        <mxCell id="UKDj6XNI0c0fZ1imPNGh-34" value="" style="shape=tableRow;horizontal=0;startSize=0;swimlaneHead=0;swimlaneBody=0;fillColor=none;collapsible=0;dropTarget=0;points=[[0,0.5],[1,0.5]];portConstraint=eastwest;top=0;left=0;right=0;bottom=1;rounded=1;fontStyle=1;fontSize=16;" vertex="1" parent="UKDj6XNI0c0fZ1imPNGh-33">
          <mxGeometry y="40" width="250" height="39" as="geometry" />
        </mxCell>
        <mxCell id="UKDj6XNI0c0fZ1imPNGh-35" value="PK" style="shape=partialRectangle;connectable=0;fillColor=none;top=0;left=0;bottom=0;right=0;fontStyle=1;overflow=hidden;whiteSpace=wrap;html=1;rounded=1;fontSize=16;" vertex="1" parent="UKDj6XNI0c0fZ1imPNGh-34">
          <mxGeometry width="30" height="39" as="geometry">
            <mxRectangle width="30" height="39" as="alternateBounds" />
          </mxGeometry>
        </mxCell>
        <mxCell id="UKDj6XNI0c0fZ1imPNGh-36" value="&lt;span style=&quot;background-color: rgb(224, 224, 224);&quot;&gt;product_key&lt;/span&gt;" style="shape=partialRectangle;connectable=0;fillColor=none;top=0;left=0;bottom=0;right=0;align=left;spacingLeft=6;fontStyle=5;overflow=hidden;whiteSpace=wrap;html=1;rounded=1;fontSize=16;" vertex="1" parent="UKDj6XNI0c0fZ1imPNGh-34">
          <mxGeometry x="30" width="220" height="39" as="geometry">
            <mxRectangle width="220" height="39" as="alternateBounds" />
          </mxGeometry>
        </mxCell>
        <mxCell id="UKDj6XNI0c0fZ1imPNGh-37" value="" style="shape=tableRow;horizontal=0;startSize=0;swimlaneHead=0;swimlaneBody=0;fillColor=none;collapsible=0;dropTarget=0;points=[[0,0.5],[1,0.5]];portConstraint=eastwest;top=0;left=0;right=0;bottom=0;rounded=1;fontStyle=1;fontSize=16;" vertex="1" parent="UKDj6XNI0c0fZ1imPNGh-33">
          <mxGeometry y="79" width="250" height="39" as="geometry" />
        </mxCell>
        <mxCell id="UKDj6XNI0c0fZ1imPNGh-38" value="" style="shape=partialRectangle;connectable=0;fillColor=none;top=0;left=0;bottom=0;right=0;editable=1;overflow=hidden;whiteSpace=wrap;html=1;rounded=1;fontStyle=1;fontSize=16;" vertex="1" parent="UKDj6XNI0c0fZ1imPNGh-37">
          <mxGeometry width="30" height="39" as="geometry">
            <mxRectangle width="30" height="39" as="alternateBounds" />
          </mxGeometry>
        </mxCell>
        <mxCell id="UKDj6XNI0c0fZ1imPNGh-39" value="product_id" style="shape=partialRectangle;connectable=0;fillColor=none;top=0;left=0;bottom=0;right=0;align=left;spacingLeft=6;overflow=hidden;whiteSpace=wrap;html=1;rounded=1;fontStyle=1;fontSize=16;" vertex="1" parent="UKDj6XNI0c0fZ1imPNGh-37">
          <mxGeometry x="30" width="220" height="39" as="geometry">
            <mxRectangle width="220" height="39" as="alternateBounds" />
          </mxGeometry>
        </mxCell>
        <mxCell id="UKDj6XNI0c0fZ1imPNGh-40" value="" style="shape=tableRow;horizontal=0;startSize=0;swimlaneHead=0;swimlaneBody=0;fillColor=none;collapsible=0;dropTarget=0;points=[[0,0.5],[1,0.5]];portConstraint=eastwest;top=0;left=0;right=0;bottom=0;rounded=1;fontStyle=1;fontSize=16;" vertex="1" parent="UKDj6XNI0c0fZ1imPNGh-33">
          <mxGeometry y="118" width="250" height="39" as="geometry" />
        </mxCell>
        <mxCell id="UKDj6XNI0c0fZ1imPNGh-41" value="" style="shape=partialRectangle;connectable=0;fillColor=none;top=0;left=0;bottom=0;right=0;editable=1;overflow=hidden;whiteSpace=wrap;html=1;rounded=1;fontStyle=1;fontSize=16;" vertex="1" parent="UKDj6XNI0c0fZ1imPNGh-40">
          <mxGeometry width="30" height="39" as="geometry">
            <mxRectangle width="30" height="39" as="alternateBounds" />
          </mxGeometry>
        </mxCell>
        <mxCell id="UKDj6XNI0c0fZ1imPNGh-42" value="product_number" style="shape=partialRectangle;connectable=0;fillColor=none;top=0;left=0;bottom=0;right=0;align=left;spacingLeft=6;overflow=hidden;whiteSpace=wrap;html=1;rounded=1;fontStyle=1;fontSize=16;" vertex="1" parent="UKDj6XNI0c0fZ1imPNGh-40">
          <mxGeometry x="30" width="220" height="39" as="geometry">
            <mxRectangle width="220" height="39" as="alternateBounds" />
          </mxGeometry>
        </mxCell>
        <mxCell id="UKDj6XNI0c0fZ1imPNGh-43" value="" style="shape=tableRow;horizontal=0;startSize=0;swimlaneHead=0;swimlaneBody=0;fillColor=none;collapsible=0;dropTarget=0;points=[[0,0.5],[1,0.5]];portConstraint=eastwest;top=0;left=0;right=0;bottom=0;rounded=1;fontStyle=1;fontSize=16;" vertex="1" parent="UKDj6XNI0c0fZ1imPNGh-33">
          <mxGeometry y="157" width="250" height="39" as="geometry" />
        </mxCell>
        <mxCell id="UKDj6XNI0c0fZ1imPNGh-44" value="" style="shape=partialRectangle;connectable=0;fillColor=none;top=0;left=0;bottom=0;right=0;editable=1;overflow=hidden;whiteSpace=wrap;html=1;rounded=1;fontStyle=1;fontSize=16;" vertex="1" parent="UKDj6XNI0c0fZ1imPNGh-43">
          <mxGeometry width="30" height="39" as="geometry">
            <mxRectangle width="30" height="39" as="alternateBounds" />
          </mxGeometry>
        </mxCell>
        <mxCell id="UKDj6XNI0c0fZ1imPNGh-45" value="product_name" style="shape=partialRectangle;connectable=0;fillColor=none;top=0;left=0;bottom=0;right=0;align=left;spacingLeft=6;overflow=hidden;whiteSpace=wrap;html=1;rounded=1;fontStyle=1;fontSize=16;" vertex="1" parent="UKDj6XNI0c0fZ1imPNGh-43">
          <mxGeometry x="30" width="220" height="39" as="geometry">
            <mxRectangle width="220" height="39" as="alternateBounds" />
          </mxGeometry>
        </mxCell>
        <mxCell id="UKDj6XNI0c0fZ1imPNGh-46" value="" style="shape=tableRow;horizontal=0;startSize=0;swimlaneHead=0;swimlaneBody=0;fillColor=none;collapsible=0;dropTarget=0;points=[[0,0.5],[1,0.5]];portConstraint=eastwest;top=0;left=0;right=0;bottom=0;rounded=1;fontStyle=1;fontSize=16;" vertex="1" parent="UKDj6XNI0c0fZ1imPNGh-33">
          <mxGeometry y="196" width="250" height="39" as="geometry" />
        </mxCell>
        <mxCell id="UKDj6XNI0c0fZ1imPNGh-47" value="" style="shape=partialRectangle;connectable=0;fillColor=none;top=0;left=0;bottom=0;right=0;editable=1;overflow=hidden;whiteSpace=wrap;html=1;rounded=1;fontStyle=1;fontSize=16;" vertex="1" parent="UKDj6XNI0c0fZ1imPNGh-46">
          <mxGeometry width="30" height="39" as="geometry">
            <mxRectangle width="30" height="39" as="alternateBounds" />
          </mxGeometry>
        </mxCell>
        <mxCell id="UKDj6XNI0c0fZ1imPNGh-48" value="category_id" style="shape=partialRectangle;connectable=0;fillColor=none;top=0;left=0;bottom=0;right=0;align=left;spacingLeft=6;overflow=hidden;whiteSpace=wrap;html=1;rounded=1;fontStyle=1;fontSize=16;" vertex="1" parent="UKDj6XNI0c0fZ1imPNGh-46">
          <mxGeometry x="30" width="220" height="39" as="geometry">
            <mxRectangle width="220" height="39" as="alternateBounds" />
          </mxGeometry>
        </mxCell>
        <mxCell id="UKDj6XNI0c0fZ1imPNGh-49" value="" style="shape=tableRow;horizontal=0;startSize=0;swimlaneHead=0;swimlaneBody=0;fillColor=none;collapsible=0;dropTarget=0;points=[[0,0.5],[1,0.5]];portConstraint=eastwest;top=0;left=0;right=0;bottom=0;rounded=1;fontStyle=1;fontSize=16;" vertex="1" parent="UKDj6XNI0c0fZ1imPNGh-33">
          <mxGeometry y="235" width="250" height="39" as="geometry" />
        </mxCell>
        <mxCell id="UKDj6XNI0c0fZ1imPNGh-50" value="" style="shape=partialRectangle;connectable=0;fillColor=none;top=0;left=0;bottom=0;right=0;editable=1;overflow=hidden;whiteSpace=wrap;html=1;rounded=1;fontStyle=1;fontSize=16;" vertex="1" parent="UKDj6XNI0c0fZ1imPNGh-49">
          <mxGeometry width="30" height="39" as="geometry">
            <mxRectangle width="30" height="39" as="alternateBounds" />
          </mxGeometry>
        </mxCell>
        <mxCell id="UKDj6XNI0c0fZ1imPNGh-51" value="category" style="shape=partialRectangle;connectable=0;fillColor=none;top=0;left=0;bottom=0;right=0;align=left;spacingLeft=6;overflow=hidden;whiteSpace=wrap;html=1;rounded=1;fontStyle=1;fontSize=16;" vertex="1" parent="UKDj6XNI0c0fZ1imPNGh-49">
          <mxGeometry x="30" width="220" height="39" as="geometry">
            <mxRectangle width="220" height="39" as="alternateBounds" />
          </mxGeometry>
        </mxCell>
        <mxCell id="UKDj6XNI0c0fZ1imPNGh-52" value="" style="shape=tableRow;horizontal=0;startSize=0;swimlaneHead=0;swimlaneBody=0;fillColor=none;collapsible=0;dropTarget=0;points=[[0,0.5],[1,0.5]];portConstraint=eastwest;top=0;left=0;right=0;bottom=0;rounded=1;fontStyle=1;fontSize=16;" vertex="1" parent="UKDj6XNI0c0fZ1imPNGh-33">
          <mxGeometry y="274" width="250" height="39" as="geometry" />
        </mxCell>
        <mxCell id="UKDj6XNI0c0fZ1imPNGh-53" value="" style="shape=partialRectangle;connectable=0;fillColor=none;top=0;left=0;bottom=0;right=0;editable=1;overflow=hidden;whiteSpace=wrap;html=1;rounded=1;fontStyle=1;fontSize=16;" vertex="1" parent="UKDj6XNI0c0fZ1imPNGh-52">
          <mxGeometry width="30" height="39" as="geometry">
            <mxRectangle width="30" height="39" as="alternateBounds" />
          </mxGeometry>
        </mxCell>
        <mxCell id="UKDj6XNI0c0fZ1imPNGh-54" value="subcategory" style="shape=partialRectangle;connectable=0;fillColor=none;top=0;left=0;bottom=0;right=0;align=left;spacingLeft=6;overflow=hidden;whiteSpace=wrap;html=1;rounded=1;fontStyle=1;fontSize=16;" vertex="1" parent="UKDj6XNI0c0fZ1imPNGh-52">
          <mxGeometry x="30" width="220" height="39" as="geometry">
            <mxRectangle width="220" height="39" as="alternateBounds" />
          </mxGeometry>
        </mxCell>
        <mxCell id="UKDj6XNI0c0fZ1imPNGh-55" value="" style="shape=tableRow;horizontal=0;startSize=0;swimlaneHead=0;swimlaneBody=0;fillColor=none;collapsible=0;dropTarget=0;points=[[0,0.5],[1,0.5]];portConstraint=eastwest;top=0;left=0;right=0;bottom=0;rounded=1;fontStyle=1;fontSize=16;" vertex="1" parent="UKDj6XNI0c0fZ1imPNGh-33">
          <mxGeometry y="313" width="250" height="39" as="geometry" />
        </mxCell>
        <mxCell id="UKDj6XNI0c0fZ1imPNGh-56" value="" style="shape=partialRectangle;connectable=0;fillColor=none;top=0;left=0;bottom=0;right=0;editable=1;overflow=hidden;whiteSpace=wrap;html=1;rounded=1;fontStyle=1;fontSize=16;" vertex="1" parent="UKDj6XNI0c0fZ1imPNGh-55">
          <mxGeometry width="30" height="39" as="geometry">
            <mxRectangle width="30" height="39" as="alternateBounds" />
          </mxGeometry>
        </mxCell>
        <mxCell id="UKDj6XNI0c0fZ1imPNGh-57" value="maintenance" style="shape=partialRectangle;connectable=0;fillColor=none;top=0;left=0;bottom=0;right=0;align=left;spacingLeft=6;overflow=hidden;whiteSpace=wrap;html=1;rounded=1;fontStyle=1;fontSize=16;" vertex="1" parent="UKDj6XNI0c0fZ1imPNGh-55">
          <mxGeometry x="30" width="220" height="39" as="geometry">
            <mxRectangle width="220" height="39" as="alternateBounds" />
          </mxGeometry>
        </mxCell>
        <mxCell id="UKDj6XNI0c0fZ1imPNGh-58" value="" style="shape=tableRow;horizontal=0;startSize=0;swimlaneHead=0;swimlaneBody=0;fillColor=none;collapsible=0;dropTarget=0;points=[[0,0.5],[1,0.5]];portConstraint=eastwest;top=0;left=0;right=0;bottom=0;rounded=1;fontStyle=1;fontSize=16;" vertex="1" parent="UKDj6XNI0c0fZ1imPNGh-33">
          <mxGeometry y="352" width="250" height="39" as="geometry" />
        </mxCell>
        <mxCell id="UKDj6XNI0c0fZ1imPNGh-59" value="" style="shape=partialRectangle;connectable=0;fillColor=none;top=0;left=0;bottom=0;right=0;editable=1;overflow=hidden;whiteSpace=wrap;html=1;rounded=1;fontStyle=1;fontSize=16;" vertex="1" parent="UKDj6XNI0c0fZ1imPNGh-58">
          <mxGeometry width="30" height="39" as="geometry">
            <mxRectangle width="30" height="39" as="alternateBounds" />
          </mxGeometry>
        </mxCell>
        <mxCell id="UKDj6XNI0c0fZ1imPNGh-60" value="cost" style="shape=partialRectangle;connectable=0;fillColor=none;top=0;left=0;bottom=0;right=0;align=left;spacingLeft=6;overflow=hidden;whiteSpace=wrap;html=1;rounded=1;fontStyle=1;fontSize=16;" vertex="1" parent="UKDj6XNI0c0fZ1imPNGh-58">
          <mxGeometry x="30" width="220" height="39" as="geometry">
            <mxRectangle width="220" height="39" as="alternateBounds" />
          </mxGeometry>
        </mxCell>
        <mxCell id="UKDj6XNI0c0fZ1imPNGh-61" value="" style="shape=tableRow;horizontal=0;startSize=0;swimlaneHead=0;swimlaneBody=0;fillColor=none;collapsible=0;dropTarget=0;points=[[0,0.5],[1,0.5]];portConstraint=eastwest;top=0;left=0;right=0;bottom=0;rounded=1;fontStyle=1;fontSize=16;" vertex="1" parent="UKDj6XNI0c0fZ1imPNGh-33">
          <mxGeometry y="391" width="250" height="39" as="geometry" />
        </mxCell>
        <mxCell id="UKDj6XNI0c0fZ1imPNGh-62" value="" style="shape=partialRectangle;connectable=0;fillColor=none;top=0;left=0;bottom=0;right=0;editable=1;overflow=hidden;whiteSpace=wrap;html=1;rounded=1;fontStyle=1;fontSize=16;" vertex="1" parent="UKDj6XNI0c0fZ1imPNGh-61">
          <mxGeometry width="30" height="39" as="geometry">
            <mxRectangle width="30" height="39" as="alternateBounds" />
          </mxGeometry>
        </mxCell>
        <mxCell id="UKDj6XNI0c0fZ1imPNGh-63" value="product_line" style="shape=partialRectangle;connectable=0;fillColor=none;top=0;left=0;bottom=0;right=0;align=left;spacingLeft=6;overflow=hidden;whiteSpace=wrap;html=1;rounded=1;fontStyle=1;fontSize=16;" vertex="1" parent="UKDj6XNI0c0fZ1imPNGh-61">
          <mxGeometry x="30" width="220" height="39" as="geometry">
            <mxRectangle width="220" height="39" as="alternateBounds" />
          </mxGeometry>
        </mxCell>
        <mxCell id="UKDj6XNI0c0fZ1imPNGh-64" value="" style="shape=tableRow;horizontal=0;startSize=0;swimlaneHead=0;swimlaneBody=0;fillColor=none;collapsible=0;dropTarget=0;points=[[0,0.5],[1,0.5]];portConstraint=eastwest;top=0;left=0;right=0;bottom=0;rounded=1;fontStyle=1;fontSize=16;" vertex="1" parent="UKDj6XNI0c0fZ1imPNGh-33">
          <mxGeometry y="430" width="250" height="39" as="geometry" />
        </mxCell>
        <mxCell id="UKDj6XNI0c0fZ1imPNGh-65" value="" style="shape=partialRectangle;connectable=0;fillColor=none;top=0;left=0;bottom=0;right=0;editable=1;overflow=hidden;whiteSpace=wrap;html=1;rounded=1;fontStyle=1;fontSize=16;" vertex="1" parent="UKDj6XNI0c0fZ1imPNGh-64">
          <mxGeometry width="30" height="39" as="geometry">
            <mxRectangle width="30" height="39" as="alternateBounds" />
          </mxGeometry>
        </mxCell>
        <mxCell id="UKDj6XNI0c0fZ1imPNGh-66" value="start_date" style="shape=partialRectangle;connectable=0;fillColor=none;top=0;left=0;bottom=0;right=0;align=left;spacingLeft=6;overflow=hidden;whiteSpace=wrap;html=1;rounded=1;fontStyle=1;fontSize=16;" vertex="1" parent="UKDj6XNI0c0fZ1imPNGh-64">
          <mxGeometry x="30" width="220" height="39" as="geometry">
            <mxRectangle width="220" height="39" as="alternateBounds" />
          </mxGeometry>
        </mxCell>
        <mxCell id="UKDj6XNI0c0fZ1imPNGh-67" value="&lt;font style=&quot;font-size: 18px;&quot;&gt;gold.fact_sales&lt;/font&gt;" style="shape=table;startSize=40;container=1;collapsible=1;childLayout=tableLayout;fixedRows=1;rowLines=0;fontStyle=1;align=center;resizeLast=1;html=1;rounded=1;fillColor=#dae8fc;strokeColor=#6c8ebf;" vertex="1" parent="1">
          <mxGeometry x="850" y="-880" width="250" height="401" as="geometry" />
        </mxCell>
        <mxCell id="UKDj6XNI0c0fZ1imPNGh-68" value="" style="shape=tableRow;horizontal=0;startSize=0;swimlaneHead=0;swimlaneBody=0;fillColor=none;collapsible=0;dropTarget=0;points=[[0,0.5],[1,0.5]];portConstraint=eastwest;top=0;left=0;right=0;bottom=0;rounded=1;fontStyle=1;fontSize=16;" vertex="1" parent="UKDj6XNI0c0fZ1imPNGh-67">
          <mxGeometry y="40" width="250" height="39" as="geometry" />
        </mxCell>
        <mxCell id="UKDj6XNI0c0fZ1imPNGh-69" value="" style="shape=partialRectangle;connectable=0;fillColor=none;top=0;left=0;bottom=0;right=0;editable=1;overflow=hidden;whiteSpace=wrap;html=1;rounded=1;fontStyle=1;fontSize=16;" vertex="1" parent="UKDj6XNI0c0fZ1imPNGh-68">
          <mxGeometry width="40" height="39" as="geometry">
            <mxRectangle width="40" height="39" as="alternateBounds" />
          </mxGeometry>
        </mxCell>
        <mxCell id="UKDj6XNI0c0fZ1imPNGh-70" value="order_number" style="shape=partialRectangle;connectable=0;fillColor=none;top=0;left=0;bottom=0;right=0;align=left;spacingLeft=6;overflow=hidden;whiteSpace=wrap;html=1;rounded=1;fontStyle=1;fontSize=16;" vertex="1" parent="UKDj6XNI0c0fZ1imPNGh-68">
          <mxGeometry x="40" width="210" height="39" as="geometry">
            <mxRectangle width="210" height="39" as="alternateBounds" />
          </mxGeometry>
        </mxCell>
        <mxCell id="UKDj6XNI0c0fZ1imPNGh-71" value="" style="shape=tableRow;horizontal=0;startSize=0;swimlaneHead=0;swimlaneBody=0;fillColor=none;collapsible=0;dropTarget=0;points=[[0,0.5],[1,0.5]];portConstraint=eastwest;top=0;left=0;right=0;bottom=0;rounded=1;fontStyle=1;fontSize=16;" vertex="1" parent="UKDj6XNI0c0fZ1imPNGh-67">
          <mxGeometry y="79" width="250" height="39" as="geometry" />
        </mxCell>
        <mxCell id="UKDj6XNI0c0fZ1imPNGh-72" value="FK1" style="shape=partialRectangle;connectable=0;fillColor=none;top=0;left=0;bottom=0;right=0;editable=1;overflow=hidden;whiteSpace=wrap;html=1;rounded=1;fontStyle=1;fontSize=16;" vertex="1" parent="UKDj6XNI0c0fZ1imPNGh-71">
          <mxGeometry width="40" height="39" as="geometry">
            <mxRectangle width="40" height="39" as="alternateBounds" />
          </mxGeometry>
        </mxCell>
        <mxCell id="UKDj6XNI0c0fZ1imPNGh-73" value="&lt;span style=&quot;background-color: rgb(207, 207, 207);&quot;&gt;product_key&lt;/span&gt;" style="shape=partialRectangle;connectable=0;fillColor=none;top=0;left=0;bottom=0;right=0;align=left;spacingLeft=6;overflow=hidden;whiteSpace=wrap;html=1;rounded=1;fontStyle=1;fontSize=16;" vertex="1" parent="UKDj6XNI0c0fZ1imPNGh-71">
          <mxGeometry x="40" width="210" height="39" as="geometry">
            <mxRectangle width="210" height="39" as="alternateBounds" />
          </mxGeometry>
        </mxCell>
        <mxCell id="UKDj6XNI0c0fZ1imPNGh-74" value="" style="shape=tableRow;horizontal=0;startSize=0;swimlaneHead=0;swimlaneBody=0;fillColor=none;collapsible=0;dropTarget=0;points=[[0,0.5],[1,0.5]];portConstraint=eastwest;top=0;left=0;right=0;bottom=0;rounded=1;fontStyle=1;fontSize=16;" vertex="1" parent="UKDj6XNI0c0fZ1imPNGh-67">
          <mxGeometry y="118" width="250" height="39" as="geometry" />
        </mxCell>
        <mxCell id="UKDj6XNI0c0fZ1imPNGh-75" value="FK2" style="shape=partialRectangle;connectable=0;fillColor=none;top=0;left=0;bottom=0;right=0;editable=1;overflow=hidden;whiteSpace=wrap;html=1;rounded=1;fontStyle=1;fontSize=16;" vertex="1" parent="UKDj6XNI0c0fZ1imPNGh-74">
          <mxGeometry width="40" height="39" as="geometry">
            <mxRectangle width="40" height="39" as="alternateBounds" />
          </mxGeometry>
        </mxCell>
        <mxCell id="UKDj6XNI0c0fZ1imPNGh-76" value="&lt;span style=&quot;background-color: rgb(207, 207, 207);&quot;&gt;customer_key&lt;/span&gt;" style="shape=partialRectangle;connectable=0;fillColor=none;top=0;left=0;bottom=0;right=0;align=left;spacingLeft=6;overflow=hidden;whiteSpace=wrap;html=1;rounded=1;fontStyle=1;fontSize=16;" vertex="1" parent="UKDj6XNI0c0fZ1imPNGh-74">
          <mxGeometry x="40" width="210" height="39" as="geometry">
            <mxRectangle width="210" height="39" as="alternateBounds" />
          </mxGeometry>
        </mxCell>
        <mxCell id="UKDj6XNI0c0fZ1imPNGh-77" value="" style="shape=tableRow;horizontal=0;startSize=0;swimlaneHead=0;swimlaneBody=0;fillColor=none;collapsible=0;dropTarget=0;points=[[0,0.5],[1,0.5]];portConstraint=eastwest;top=0;left=0;right=0;bottom=0;rounded=1;fontStyle=1;fontSize=16;" vertex="1" parent="UKDj6XNI0c0fZ1imPNGh-67">
          <mxGeometry y="157" width="250" height="39" as="geometry" />
        </mxCell>
        <mxCell id="UKDj6XNI0c0fZ1imPNGh-78" value="" style="shape=partialRectangle;connectable=0;fillColor=none;top=0;left=0;bottom=0;right=0;editable=1;overflow=hidden;whiteSpace=wrap;html=1;rounded=1;fontStyle=1;fontSize=16;" vertex="1" parent="UKDj6XNI0c0fZ1imPNGh-77">
          <mxGeometry width="40" height="39" as="geometry">
            <mxRectangle width="40" height="39" as="alternateBounds" />
          </mxGeometry>
        </mxCell>
        <mxCell id="UKDj6XNI0c0fZ1imPNGh-79" value="order_date" style="shape=partialRectangle;connectable=0;fillColor=none;top=0;left=0;bottom=0;right=0;align=left;spacingLeft=6;overflow=hidden;whiteSpace=wrap;html=1;rounded=1;fontStyle=1;fontSize=16;" vertex="1" parent="UKDj6XNI0c0fZ1imPNGh-77">
          <mxGeometry x="40" width="210" height="39" as="geometry">
            <mxRectangle width="210" height="39" as="alternateBounds" />
          </mxGeometry>
        </mxCell>
        <mxCell id="UKDj6XNI0c0fZ1imPNGh-80" value="" style="shape=tableRow;horizontal=0;startSize=0;swimlaneHead=0;swimlaneBody=0;fillColor=none;collapsible=0;dropTarget=0;points=[[0,0.5],[1,0.5]];portConstraint=eastwest;top=0;left=0;right=0;bottom=0;rounded=1;fontStyle=1;fontSize=16;" vertex="1" parent="UKDj6XNI0c0fZ1imPNGh-67">
          <mxGeometry y="196" width="250" height="39" as="geometry" />
        </mxCell>
        <mxCell id="UKDj6XNI0c0fZ1imPNGh-81" value="" style="shape=partialRectangle;connectable=0;fillColor=none;top=0;left=0;bottom=0;right=0;editable=1;overflow=hidden;whiteSpace=wrap;html=1;rounded=1;fontStyle=1;fontSize=16;" vertex="1" parent="UKDj6XNI0c0fZ1imPNGh-80">
          <mxGeometry width="40" height="39" as="geometry">
            <mxRectangle width="40" height="39" as="alternateBounds" />
          </mxGeometry>
        </mxCell>
        <mxCell id="UKDj6XNI0c0fZ1imPNGh-82" value="shipping_date" style="shape=partialRectangle;connectable=0;fillColor=none;top=0;left=0;bottom=0;right=0;align=left;spacingLeft=6;overflow=hidden;whiteSpace=wrap;html=1;rounded=1;fontStyle=1;fontSize=16;" vertex="1" parent="UKDj6XNI0c0fZ1imPNGh-80">
          <mxGeometry x="40" width="210" height="39" as="geometry">
            <mxRectangle width="210" height="39" as="alternateBounds" />
          </mxGeometry>
        </mxCell>
        <mxCell id="UKDj6XNI0c0fZ1imPNGh-83" value="" style="shape=tableRow;horizontal=0;startSize=0;swimlaneHead=0;swimlaneBody=0;fillColor=none;collapsible=0;dropTarget=0;points=[[0,0.5],[1,0.5]];portConstraint=eastwest;top=0;left=0;right=0;bottom=0;rounded=1;fontStyle=1;fontSize=16;" vertex="1" parent="UKDj6XNI0c0fZ1imPNGh-67">
          <mxGeometry y="235" width="250" height="39" as="geometry" />
        </mxCell>
        <mxCell id="UKDj6XNI0c0fZ1imPNGh-84" value="" style="shape=partialRectangle;connectable=0;fillColor=none;top=0;left=0;bottom=0;right=0;editable=1;overflow=hidden;whiteSpace=wrap;html=1;rounded=1;fontStyle=1;fontSize=16;" vertex="1" parent="UKDj6XNI0c0fZ1imPNGh-83">
          <mxGeometry width="40" height="39" as="geometry">
            <mxRectangle width="40" height="39" as="alternateBounds" />
          </mxGeometry>
        </mxCell>
        <mxCell id="UKDj6XNI0c0fZ1imPNGh-85" value="due_date" style="shape=partialRectangle;connectable=0;fillColor=none;top=0;left=0;bottom=0;right=0;align=left;spacingLeft=6;overflow=hidden;whiteSpace=wrap;html=1;rounded=1;fontStyle=1;fontSize=16;" vertex="1" parent="UKDj6XNI0c0fZ1imPNGh-83">
          <mxGeometry x="40" width="210" height="39" as="geometry">
            <mxRectangle width="210" height="39" as="alternateBounds" />
          </mxGeometry>
        </mxCell>
        <mxCell id="UKDj6XNI0c0fZ1imPNGh-86" value="" style="shape=tableRow;horizontal=0;startSize=0;swimlaneHead=0;swimlaneBody=0;fillColor=none;collapsible=0;dropTarget=0;points=[[0,0.5],[1,0.5]];portConstraint=eastwest;top=0;left=0;right=0;bottom=0;rounded=1;fontStyle=1;fontSize=16;" vertex="1" parent="UKDj6XNI0c0fZ1imPNGh-67">
          <mxGeometry y="274" width="250" height="39" as="geometry" />
        </mxCell>
        <mxCell id="UKDj6XNI0c0fZ1imPNGh-87" value="" style="shape=partialRectangle;connectable=0;fillColor=none;top=0;left=0;bottom=0;right=0;editable=1;overflow=hidden;whiteSpace=wrap;html=1;rounded=1;fontStyle=1;fontSize=16;" vertex="1" parent="UKDj6XNI0c0fZ1imPNGh-86">
          <mxGeometry width="40" height="39" as="geometry">
            <mxRectangle width="40" height="39" as="alternateBounds" />
          </mxGeometry>
        </mxCell>
        <mxCell id="UKDj6XNI0c0fZ1imPNGh-88" value="sales_amount" style="shape=partialRectangle;connectable=0;fillColor=none;top=0;left=0;bottom=0;right=0;align=left;spacingLeft=6;overflow=hidden;whiteSpace=wrap;html=1;rounded=1;fontStyle=1;fontSize=16;" vertex="1" parent="UKDj6XNI0c0fZ1imPNGh-86">
          <mxGeometry x="40" width="210" height="39" as="geometry">
            <mxRectangle width="210" height="39" as="alternateBounds" />
          </mxGeometry>
        </mxCell>
        <mxCell id="UKDj6XNI0c0fZ1imPNGh-89" value="" style="shape=tableRow;horizontal=0;startSize=0;swimlaneHead=0;swimlaneBody=0;fillColor=none;collapsible=0;dropTarget=0;points=[[0,0.5],[1,0.5]];portConstraint=eastwest;top=0;left=0;right=0;bottom=0;rounded=1;fontStyle=1;fontSize=16;" vertex="1" parent="UKDj6XNI0c0fZ1imPNGh-67">
          <mxGeometry y="313" width="250" height="39" as="geometry" />
        </mxCell>
        <mxCell id="UKDj6XNI0c0fZ1imPNGh-90" value="" style="shape=partialRectangle;connectable=0;fillColor=none;top=0;left=0;bottom=0;right=0;editable=1;overflow=hidden;whiteSpace=wrap;html=1;rounded=1;fontStyle=1;fontSize=16;" vertex="1" parent="UKDj6XNI0c0fZ1imPNGh-89">
          <mxGeometry width="40" height="39" as="geometry">
            <mxRectangle width="40" height="39" as="alternateBounds" />
          </mxGeometry>
        </mxCell>
        <mxCell id="UKDj6XNI0c0fZ1imPNGh-91" value="quantity" style="shape=partialRectangle;connectable=0;fillColor=none;top=0;left=0;bottom=0;right=0;align=left;spacingLeft=6;overflow=hidden;whiteSpace=wrap;html=1;rounded=1;fontStyle=1;fontSize=16;" vertex="1" parent="UKDj6XNI0c0fZ1imPNGh-89">
          <mxGeometry x="40" width="210" height="39" as="geometry">
            <mxRectangle width="210" height="39" as="alternateBounds" />
          </mxGeometry>
        </mxCell>
        <mxCell id="UKDj6XNI0c0fZ1imPNGh-92" value="" style="shape=tableRow;horizontal=0;startSize=0;swimlaneHead=0;swimlaneBody=0;fillColor=none;collapsible=0;dropTarget=0;points=[[0,0.5],[1,0.5]];portConstraint=eastwest;top=0;left=0;right=0;bottom=0;rounded=1;fontStyle=1;fontSize=16;" vertex="1" parent="UKDj6XNI0c0fZ1imPNGh-67">
          <mxGeometry y="352" width="250" height="39" as="geometry" />
        </mxCell>
        <mxCell id="UKDj6XNI0c0fZ1imPNGh-93" value="" style="shape=partialRectangle;connectable=0;fillColor=none;top=0;left=0;bottom=0;right=0;editable=1;overflow=hidden;whiteSpace=wrap;html=1;rounded=1;fontStyle=1;fontSize=16;" vertex="1" parent="UKDj6XNI0c0fZ1imPNGh-92">
          <mxGeometry width="40" height="39" as="geometry">
            <mxRectangle width="40" height="39" as="alternateBounds" />
          </mxGeometry>
        </mxCell>
        <mxCell id="UKDj6XNI0c0fZ1imPNGh-94" value="price" style="shape=partialRectangle;connectable=0;fillColor=none;top=0;left=0;bottom=0;right=0;align=left;spacingLeft=6;overflow=hidden;whiteSpace=wrap;html=1;rounded=1;fontStyle=1;fontSize=16;" vertex="1" parent="UKDj6XNI0c0fZ1imPNGh-92">
          <mxGeometry x="40" width="210" height="39" as="geometry">
            <mxRectangle width="210" height="39" as="alternateBounds" />
          </mxGeometry>
        </mxCell>
        <mxCell id="UKDj6XNI0c0fZ1imPNGh-95" value="" style="edgeStyle=entityRelationEdgeStyle;fontSize=12;html=1;endArrow=ERzeroToMany;startArrow=ERmandOne;rounded=0;exitX=1;exitY=0.5;exitDx=0;exitDy=0;entryX=0;entryY=0.5;entryDx=0;entryDy=0;" edge="1" parent="1" source="UKDj6XNI0c0fZ1imPNGh-3" target="UKDj6XNI0c0fZ1imPNGh-74">
          <mxGeometry width="100" height="100" relative="1" as="geometry">
            <mxPoint x="720" y="-750" as="sourcePoint" />
            <mxPoint x="820" y="-850" as="targetPoint" />
          </mxGeometry>
        </mxCell>
        <mxCell id="UKDj6XNI0c0fZ1imPNGh-96" value="" style="edgeStyle=entityRelationEdgeStyle;fontSize=12;html=1;endArrow=ERzeroToMany;startArrow=ERmandOne;rounded=0;entryX=1;entryY=0.5;entryDx=0;entryDy=0;exitX=0;exitY=0.5;exitDx=0;exitDy=0;" edge="1" parent="1" source="UKDj6XNI0c0fZ1imPNGh-34" target="UKDj6XNI0c0fZ1imPNGh-71">
          <mxGeometry width="100" height="100" relative="1" as="geometry">
            <mxPoint x="1150" y="-690" as="sourcePoint" />
            <mxPoint x="1250" y="-790" as="targetPoint" />
          </mxGeometry>
        </mxCell>
        <mxCell id="UKDj6XNI0c0fZ1imPNGh-97" value="" style="endArrow=none;dashed=1;html=1;strokeWidth=1;rounded=0;exitX=0.25;exitY=0;exitDx=0;exitDy=0;" edge="1" parent="1" source="UKDj6XNI0c0fZ1imPNGh-100" target="UKDj6XNI0c0fZ1imPNGh-86">
          <mxGeometry width="50" height="50" relative="1" as="geometry">
            <mxPoint x="910" y="-400" as="sourcePoint" />
            <mxPoint x="960" y="-450" as="targetPoint" />
          </mxGeometry>
        </mxCell>
        <mxCell id="UKDj6XNI0c0fZ1imPNGh-98" value="&lt;u&gt;&lt;b style=&quot;font-size: 17px;&quot;&gt;material_status&lt;/b&gt;&lt;br style=&quot;font-size: 17px;&quot;&gt;&lt;/u&gt;&lt;div style=&quot;font-size: 17px;&quot;&gt;&lt;span style=&quot;background-color: initial; font-size: 17px;&quot;&gt;- Married&lt;/span&gt;&lt;/div&gt;&lt;span style=&quot;background-color: initial; font-size: 17px;&quot;&gt;&lt;div style=&quot;font-size: 17px;&quot;&gt;&lt;span style=&quot;background-color: initial; font-size: 17px;&quot;&gt;- Single&lt;/span&gt;&lt;/div&gt;&lt;/span&gt;" style="text;html=1;strokeColor=none;fillColor=none;align=left;verticalAlign=middle;whiteSpace=wrap;rounded=0;fontSize=17;" vertex="1" parent="1">
          <mxGeometry x="270" y="-660" width="130" height="66" as="geometry" />
        </mxCell>
        <mxCell id="UKDj6XNI0c0fZ1imPNGh-99" value="&lt;u&gt;&lt;b style=&quot;font-size: 17px;&quot;&gt;maintenance&lt;/b&gt;&lt;br style=&quot;font-size: 17px;&quot;&gt;&lt;/u&gt;&lt;div style=&quot;font-size: 17px;&quot;&gt;&lt;span style=&quot;background-color: initial; font-size: 17px;&quot;&gt;- Yes&lt;/span&gt;&lt;/div&gt;&lt;span style=&quot;background-color: initial; font-size: 17px;&quot;&gt;&lt;div style=&quot;font-size: 17px;&quot;&gt;&lt;span style=&quot;background-color: initial; font-size: 17px;&quot;&gt;-&amp;nbsp; No&lt;/span&gt;&lt;/div&gt;&lt;/span&gt;" style="text;html=1;strokeColor=none;fillColor=none;align=left;verticalAlign=middle;whiteSpace=wrap;rounded=0;fontSize=17;" vertex="1" parent="1">
          <mxGeometry x="1620" y="-554" width="200" height="66" as="geometry" />
        </mxCell>
        <mxCell id="UKDj6XNI0c0fZ1imPNGh-100" value="&lt;u&gt;&lt;b style=&quot;font-size: 17px;&quot;&gt;Sales Calculation&lt;br&gt;&lt;/b&gt;&lt;br style=&quot;font-size: 17px;&quot;&gt;&lt;/u&gt;&lt;div style=&quot;font-size: 17px;&quot;&gt;Sales = Quantity * price&lt;br&gt;&lt;/div&gt;" style="text;html=1;strokeColor=none;fillColor=none;align=left;verticalAlign=middle;whiteSpace=wrap;rounded=0;fontSize=17;" vertex="1" parent="1">
          <mxGeometry x="1010" y="-430" width="200" height="66" as="geometry" />
        </mxCell>
        <mxCell id="UKDj6XNI0c0fZ1imPNGh-101" value="" style="endArrow=none;dashed=1;html=1;strokeWidth=1;rounded=0;exitX=1;exitY=0.5;exitDx=0;exitDy=0;entryX=0;entryY=0.5;entryDx=0;entryDy=0;" edge="1" parent="1" source="UKDj6XNI0c0fZ1imPNGh-55" target="UKDj6XNI0c0fZ1imPNGh-99">
          <mxGeometry width="50" height="50" relative="1" as="geometry">
            <mxPoint x="1070" y="-420" as="sourcePoint" />
            <mxPoint x="996" y="-557" as="targetPoint" />
          </mxGeometry>
        </mxCell>
        <mxCell id="UKDj6XNI0c0fZ1imPNGh-102" value="" style="endArrow=none;dashed=1;html=1;strokeWidth=1;rounded=0;entryX=1;entryY=0.25;entryDx=0;entryDy=0;" edge="1" parent="1" target="UKDj6XNI0c0fZ1imPNGh-98">
          <mxGeometry width="50" height="50" relative="1" as="geometry">
            <mxPoint x="440" y="-600" as="sourcePoint" />
            <mxPoint x="410" y="-684" as="targetPoint" />
          </mxGeometry>
        </mxCell>
      </root>
    </mxGraphModel>
  </diagram>
</mxfile>
